<svg height="19" viewBox="0 0 20 19" width="20" xmlns="http://www.w3.org/2000/svg"><g fill="none" fill-rule="evenodd" transform="translate(-2 -2)"><path d="m0 0h24v23.666667h-24z"/><path d="m12 13.2533333c3.24 0 9.6 1.5767917 9.6 4.8516667v2.4258333h-19.2v-2.4258333c0-3.274875 6.36-4.8516667 9.6-4.8516667zm8.64 6.3175v-1.4658333c0-2.0136021-4.6626903-3.8916667-8.64-3.8916667-3.97730965 0-8.64 1.8780646-8.64 3.8916667v1.4658333zm-8.64-8.2108333c-2.376 0-4.32-1.917-4.32-4.26s1.944-4.26 4.32-4.26 4.32 1.917 4.32 4.26-1.944 4.26-4.32 4.26zm0-.96c1.8487889 0 3.36-1.49022208 3.36-3.3s-1.5112111-3.3-3.36-3.3-3.36 1.49022208-3.36 3.3 1.5112111 3.3 3.36 3.3z" fill="#757083" fill-rule="nonzero"/></g></svg>